<svg xmlns="http://www.w3.org/2000/svg" xmlns:xlink="http://www.w3.org/1999/xlink" width="500" zoomAndPan="magnify" viewBox="0 0 375 374.999991" height="500" preserveAspectRatio="xMidYMid meet" version="1.0"><defs><clipPath id="9acf2e2637"><path d="M 112.5 115.125 L 251 115.125 L 251 238 L 112.5 238 Z M 112.5 115.125 " clip-rule="nonzero"/></clipPath><clipPath id="118b4c340a"><path d="M 155 115.125 L 208 115.125 L 208 142 L 155 142 Z M 155 115.125 " clip-rule="nonzero"/></clipPath><clipPath id="236ac7db94"><path d="M 162 115.125 L 202 115.125 L 202 136 L 162 136 Z M 162 115.125 " clip-rule="nonzero"/></clipPath><clipPath id="c58395632d"><path d="M 155 115.125 L 167 115.125 L 167 120 L 155 120 Z M 155 115.125 " clip-rule="nonzero"/></clipPath><clipPath id="7058078bc2"><path d="M 197 115.125 L 208 115.125 L 208 120 L 197 120 Z M 197 115.125 " clip-rule="nonzero"/></clipPath><clipPath id="c29874ee12"><path d="M 162 115.125 L 202 115.125 L 202 120 L 162 120 Z M 162 115.125 " clip-rule="nonzero"/></clipPath><clipPath id="710d168fd6"><path d="M 176 187 L 262.5 187 L 262.5 259.875 L 176 259.875 Z M 176 187 " clip-rule="nonzero"/></clipPath></defs><path fill="#000000" d="M 196.839844 181.078125 C 196.546875 181.078125 195.964844 180.789062 195.671875 180.789062 L 186.332031 175.828125 C 185.75 175.535156 185.457031 174.660156 185.457031 174.074219 L 185.457031 154.816406 C 185.457031 153.648438 186.332031 152.773438 187.5 152.773438 L 206.46875 152.773438 C 207.636719 152.773438 208.511719 153.648438 208.511719 154.816406 L 208.511719 174.074219 C 208.511719 174.660156 207.929688 175.535156 207.34375 175.828125 L 197.714844 180.789062 C 197.421875 180.789062 197.128906 181.078125 196.839844 181.078125 Z M 189.542969 172.617188 L 196.839844 176.703125 L 204.425781 172.617188 L 204.425781 156.859375 L 189.542969 156.859375 Z M 189.542969 172.617188 " fill-opacity="1" fill-rule="evenodd"/><path fill="#000000" d="M 206.46875 164.738281 L 187.5 164.738281 C 186.332031 164.738281 185.457031 163.863281 185.457031 162.695312 C 185.457031 161.527344 186.332031 160.652344 187.5 160.652344 L 206.46875 160.652344 C 207.636719 160.652344 208.511719 161.527344 208.511719 162.695312 C 208.511719 163.863281 207.636719 164.738281 206.46875 164.738281 Z M 206.46875 164.738281 " fill-opacity="1" fill-rule="evenodd"/><g clip-path="url(#9acf2e2637)"><path fill="#000000" d="M 181.078125 237.109375 L 144.601562 237.109375 C 143.433594 237.109375 142.558594 236.234375 142.558594 235.066406 L 142.558594 165.613281 L 134.386719 174.953125 C 133.804688 175.828125 132.636719 175.828125 131.761719 175.242188 L 113.667969 161.234375 C 112.792969 160.652344 112.5 159.484375 113.082031 158.609375 C 113.667969 157.734375 114.835938 155.691406 116.585938 153.0625 C 120.085938 146.9375 125.632812 137.597656 130.886719 130.007812 C 139.933594 116.585938 142.851562 115.417969 144.894531 115.710938 L 158.023438 115.710938 C 159.191406 115.710938 160.066406 116.585938 160.066406 117.753906 C 160.066406 118.921875 159.191406 119.796875 158.023438 119.796875 L 144.601562 119.796875 C 144.601562 119.796875 144.601562 119.796875 144.308594 119.796875 C 143.726562 120.085938 141.097656 121.839844 133.511719 133.21875 C 128.550781 140.808594 123.296875 149.5625 120.085938 155.105469 C 118.921875 156.859375 118.042969 158.023438 117.460938 159.191406 L 132.636719 170.867188 L 143.140625 158.902344 C 143.726562 158.316406 144.601562 158.023438 145.183594 158.316406 C 146.058594 158.609375 146.644531 159.484375 146.644531 160.359375 L 146.644531 233.316406 L 181.078125 233.316406 C 182.246094 233.316406 183.121094 234.191406 183.121094 235.359375 C 183.121094 236.234375 182.246094 237.109375 181.078125 237.109375 Z M 144.601562 119.796875 Z M 219.308594 196.546875 C 218.140625 196.546875 217.265625 195.378906 217.265625 194.503906 L 217.265625 160.359375 C 217.265625 159.484375 217.558594 158.609375 218.433594 158.316406 C 219.308594 158.023438 220.183594 158.316406 220.769531 158.902344 L 231.273438 170.867188 L 246.15625 159.191406 C 245.574219 158.023438 244.699219 156.859375 243.824219 155.105469 C 240.320312 149.5625 235.066406 140.808594 230.105469 133.511719 C 222.519531 121.839844 219.894531 120.085938 219.308594 119.796875 L 205.59375 119.796875 C 204.425781 119.796875 203.550781 118.921875 203.550781 117.753906 C 203.550781 116.585938 204.425781 115.710938 205.59375 115.710938 L 219.015625 115.710938 C 222.519531 115.125 228.0625 121.253906 247.324219 153.0625 C 248.785156 155.691406 250.242188 157.734375 250.535156 158.609375 C 251.117188 159.484375 251.117188 160.652344 250.242188 161.234375 L 232.148438 175.242188 C 231.273438 175.828125 230.105469 175.828125 229.230469 174.953125 L 221.351562 165.613281 L 221.351562 194.503906 C 221.351562 195.378906 220.476562 196.546875 219.308594 196.546875 Z M 219.308594 196.546875 " fill-opacity="1" fill-rule="evenodd"/></g><path fill="#000000" d="M 137.890625 169.699219 C 137.304688 169.699219 137.011719 169.40625 136.722656 169.113281 L 117.753906 154.523438 C 116.878906 153.941406 116.585938 152.480469 117.167969 151.605469 C 118.042969 150.730469 119.210938 150.730469 120.085938 151.3125 L 139.054688 165.90625 C 139.933594 166.488281 140.222656 167.949219 139.347656 168.824219 C 139.054688 169.40625 138.472656 169.699219 137.890625 169.699219 Z M 137.890625 169.699219 " fill-opacity="1" fill-rule="evenodd"/><path fill="#000000" d="M 225.730469 169.699219 C 225.144531 169.699219 224.269531 169.40625 223.980469 168.824219 C 223.394531 167.949219 223.394531 166.488281 224.269531 165.90625 L 243.53125 151.3125 C 244.40625 150.730469 245.867188 150.730469 246.449219 151.605469 C 247.03125 152.773438 247.03125 153.941406 246.15625 154.523438 L 226.898438 169.113281 C 226.605469 169.40625 226.019531 169.699219 225.730469 169.699219 Z M 225.730469 169.699219 " fill-opacity="1" fill-rule="evenodd"/><g clip-path="url(#118b4c340a)"><path fill="#000000" d="M 181.957031 141.683594 C 168.238281 141.683594 156.859375 131.175781 155.984375 117.753906 C 155.984375 116.585938 156.566406 115.710938 157.734375 115.710938 C 158.902344 115.710938 160.066406 116.292969 160.066406 117.460938 C 160.945312 128.84375 170.574219 137.597656 181.957031 137.597656 C 193.335938 137.597656 202.675781 128.84375 203.550781 117.460938 C 203.550781 116.292969 204.425781 115.710938 205.59375 115.710938 C 206.761719 115.710938 207.636719 116.585938 207.636719 117.753906 C 207.050781 124.171875 204.132812 130.300781 199.464844 134.679688 C 194.796875 139.054688 188.375 141.683594 181.957031 141.683594 Z M 181.957031 141.683594 " fill-opacity="1" fill-rule="evenodd"/></g><g clip-path="url(#236ac7db94)"><path fill="#000000" d="M 181.957031 135.261719 C 176.996094 135.261719 172.324219 133.511719 168.824219 130.300781 C 165.027344 127.089844 162.988281 122.714844 162.402344 118.042969 C 162.402344 116.878906 162.988281 115.710938 164.152344 115.710938 C 165.320312 115.417969 166.488281 116.292969 166.488281 117.460938 C 167.363281 125.339844 173.785156 131.175781 181.957031 131.175781 C 189.835938 131.175781 196.546875 125.339844 197.421875 117.460938 C 197.421875 116.292969 198.589844 115.417969 199.757812 115.710938 C 200.632812 115.710938 201.507812 116.878906 201.507812 118.042969 C 200.925781 122.714844 198.589844 127.089844 195.085938 130.300781 C 191.292969 133.511719 186.625 135.261719 181.957031 135.261719 Z M 181.957031 135.261719 " fill-opacity="1" fill-rule="evenodd"/></g><g clip-path="url(#c58395632d)"><path fill="#000000" d="M 164.445312 119.796875 L 158.023438 119.796875 C 156.859375 119.796875 155.984375 118.921875 155.984375 117.753906 C 155.984375 116.585938 156.859375 115.710938 158.023438 115.710938 L 164.445312 115.710938 C 165.613281 115.710938 166.488281 116.585938 166.488281 117.753906 C 166.488281 118.921875 165.613281 119.796875 164.445312 119.796875 Z M 164.445312 119.796875 " fill-opacity="1" fill-rule="evenodd"/></g><g clip-path="url(#7058078bc2)"><path fill="#000000" d="M 205.59375 119.796875 L 199.464844 119.796875 C 198.296875 119.796875 197.421875 118.921875 197.421875 117.753906 C 197.421875 116.585938 198.296875 115.710938 199.464844 115.710938 L 205.59375 115.710938 C 206.761719 115.710938 207.636719 116.585938 207.636719 117.753906 C 207.636719 118.921875 206.761719 119.796875 205.59375 119.796875 Z M 205.59375 119.796875 " fill-opacity="1" fill-rule="evenodd"/></g><path fill="#000000" d="M 177.578125 237.109375 C 176.996094 237.109375 176.410156 237.109375 176.117188 236.527344 L 143.140625 203.550781 C 142.265625 202.96875 142.265625 201.507812 143.140625 200.925781 C 144.015625 200.046875 145.183594 200.046875 146.058594 200.925781 L 179.035156 233.609375 C 179.621094 234.484375 179.621094 235.945312 179.035156 236.527344 C 178.453125 237.109375 178.160156 237.109375 177.578125 237.109375 Z M 177.578125 237.109375 " fill-opacity="1" fill-rule="evenodd"/><path fill="#000000" d="M 182.539062 229.523438 C 181.957031 229.523438 181.371094 229.523438 181.078125 228.941406 L 143.140625 191 C 142.265625 190.417969 142.265625 188.960938 143.140625 188.375 C 144.015625 187.5 145.183594 187.5 146.058594 188.375 L 183.996094 226.019531 C 184.582031 226.898438 184.582031 228.355469 183.996094 228.941406 C 183.414062 229.523438 183.121094 229.523438 182.539062 229.523438 Z M 182.539062 229.523438 " fill-opacity="1" fill-rule="evenodd"/><path fill="#000000" d="M 184.582031 218.140625 C 183.996094 218.140625 183.414062 218.140625 183.121094 217.558594 L 143.140625 177.871094 C 142.265625 176.996094 142.265625 175.535156 143.140625 174.953125 C 144.015625 174.074219 145.183594 174.074219 146.058594 174.953125 L 186.039062 214.640625 C 186.625 215.515625 186.625 216.976562 186.039062 217.558594 C 185.457031 218.140625 185.164062 218.140625 184.582031 218.140625 Z M 184.582031 218.140625 " fill-opacity="1" fill-rule="evenodd"/><path fill="#000000" d="M 187.207031 205.300781 C 186.625 205.300781 186.039062 205.007812 185.75 204.425781 L 143.140625 161.820312 C 142.265625 160.945312 142.265625 159.484375 143.140625 158.902344 C 144.015625 158.023438 145.183594 158.023438 146.058594 158.902344 L 188.667969 201.800781 C 189.25 202.382812 189.25 203.84375 188.667969 204.425781 C 188.082031 205.007812 187.792969 205.300781 187.207031 205.300781 Z M 187.207031 205.300781 " fill-opacity="1" fill-rule="evenodd"/><g clip-path="url(#c29874ee12)"><path fill="#000000" d="M 199.464844 119.796875 L 164.445312 119.796875 C 163.277344 119.796875 162.402344 118.921875 162.402344 117.753906 C 162.402344 116.585938 163.277344 115.710938 164.445312 115.710938 L 199.464844 115.710938 C 200.632812 115.710938 201.507812 116.585938 201.507812 117.753906 C 201.507812 118.921875 200.632812 119.796875 199.464844 119.796875 Z M 199.464844 119.796875 " fill-opacity="1" fill-rule="evenodd"/></g><g clip-path="url(#710d168fd6)"><path fill="#000000" d="M 251.703125 259.875 L 231.566406 259.875 C 230.984375 259.875 230.398438 259.582031 229.816406 259.289062 L 219.308594 245.867188 L 208.21875 259.289062 C 207.929688 259.582031 207.34375 259.875 206.761719 259.875 L 186.625 259.875 C 183.414062 259.875 180.496094 258.707031 178.453125 256.078125 C 176.703125 254.035156 175.828125 251.703125 176.117188 249.074219 L 187.5 189.25 C 187.5 188.667969 188.082031 188.082031 188.375 187.792969 C 188.960938 187.5 189.542969 187.5 190.125 187.792969 C 208.804688 193.628906 227.773438 193.628906 248.199219 187.792969 C 248.785156 187.5 249.367188 187.5 249.660156 187.792969 C 250.242188 188.082031 250.535156 188.667969 250.828125 189.25 L 262.207031 249.074219 C 262.5 251.410156 261.917969 253.746094 260.164062 255.789062 C 258.121094 258.414062 254.914062 259.875 251.703125 259.875 Z M 232.441406 255.789062 L 251.703125 255.789062 C 253.453125 255.789062 255.789062 254.914062 256.957031 253.160156 C 257.539062 252.578125 258.414062 251.410156 258.121094 249.953125 L 247.03125 192.167969 C 227.480469 197.714844 209.09375 197.714844 191 192.460938 L 180.203125 249.953125 C 179.914062 251.117188 180.496094 252.285156 181.371094 253.453125 C 182.832031 254.914062 184.582031 255.789062 186.625 255.789062 L 205.59375 255.789062 L 217.558594 241.488281 C 218.140625 240.90625 218.726562 240.613281 219.308594 240.613281 C 219.894531 240.613281 220.476562 240.90625 220.769531 241.488281 Z M 232.441406 255.789062 " fill-opacity="1" fill-rule="evenodd"/></g><path fill="#000000" d="M 218.140625 208.21875 C 208.511719 208.21875 198.589844 206.761719 186.917969 203.550781 C 185.75 203.257812 185.164062 202.089844 185.457031 201.214844 C 185.75 200.046875 186.917969 199.464844 188.082031 199.757812 C 212.304688 206.175781 228.0625 205.007812 250.242188 199.757812 C 251.410156 199.464844 252.578125 200.046875 252.578125 201.214844 C 252.871094 202.382812 252.285156 203.257812 251.117188 203.550781 C 239.152344 206.46875 228.941406 208.21875 218.140625 208.21875 Z M 218.140625 208.21875 " fill-opacity="1" fill-rule="evenodd"/><path fill="#000000" d="M 215.808594 216.683594 C 214.640625 216.683594 213.765625 215.808594 213.765625 214.640625 L 213.765625 194.503906 C 213.765625 193.335938 214.640625 192.460938 215.808594 192.460938 C 216.976562 192.460938 217.851562 193.335938 217.851562 194.503906 L 217.851562 214.640625 C 217.851562 215.808594 216.976562 216.683594 215.808594 216.683594 Z M 215.808594 216.683594 " fill-opacity="1" fill-rule="evenodd"/><path fill="#000000" d="M 222.519531 209.09375 C 221.351562 209.09375 220.476562 208.21875 220.476562 207.34375 L 220.476562 194.503906 C 220.476562 193.335938 221.351562 192.460938 222.519531 192.460938 C 223.6875 192.460938 224.5625 193.335938 224.5625 194.503906 L 224.5625 207.34375 C 224.5625 208.21875 223.6875 209.09375 222.519531 209.09375 Z M 222.519531 209.09375 " fill-opacity="1" fill-rule="evenodd"/></svg>