<?xml version="1.0" standalone="no"?>
<!DOCTYPE svg PUBLIC "-//W3C//DTD SVG 1.1//EN" "http://www.w3.org/Graphics/SVG/1.1/DTD/svg11.dtd">
<svg xmlns="http://www.w3.org/2000/svg" xmlns:xlink="http://www.w3.org/1999/xlink" width="360" zoomAndPan="magnify" viewBox="0 0 360 113.999999" height="114" preserveAspectRatio="xMidYMid meet" version="1.0"><defs><clipPath id="f5cf2bf63c"><path d="M 38.128906 22.429688 L 154.128906 22.429688 L 154.128906 93.761719 L 38.128906 93.761719 Z M 38.128906 22.429688 " clip-rule="nonzero"/></clipPath><clipPath id="544a4107cd"><path d="M 143.648438 32.789062 C 136.96875 26.109375 128.089844 22.429688 118.640625 22.429688 C 107.410156 22.429688 96.730469 27.867188 90.078125 36.957031 C 90.078125 36.957031 72.167969 59.359375 71.277344 60.488281 C 70.390625 61.617188 69.089844 62.199219 67.808594 62.199219 C 65.390625 62.199219 63.410156 60.226562 63.410156 57.808594 C 63.410156 55.386719 65.378906 53.417969 67.808594 53.417969 L 68.609375 53.46875 C 70.519531 53.46875 71.769531 52.148438 71.769531 50.628906 C 71.769531 49.449219 70.949219 47.667969 68.160156 47.667969 C 62.1875 47.667969 57.71875 52.238281 57.71875 57.808594 C 57.71875 63.378906 62.25 67.898438 67.808594 67.898438 C 70.648438 67.898438 73.339844 66.707031 75.25 64.617188 L 95.890625 40.15625 C 101.410156 33.066406 109.699219 28.996094 118.640625 28.996094 C 126.328125 28.996094 133.570312 31.996094 139.007812 37.4375 C 144.449219 42.878906 147.449219 50.117188 147.449219 57.808594 C 147.449219 73.6875 134.519531 86.609375 118.640625 86.609375 C 114.140625 86.609375 112.660156 85.789062 111.550781 85.789062 C 109.679688 85.789062 108.1875 87.257812 108.1875 89.097656 C 108.1875 90.46875 109 91.636719 110.328125 92.167969 C 111.460938 92.628906 115.859375 93.167969 118.640625 93.167969 C 138.140625 93.167969 154.007812 77.296875 154.007812 57.796875 C 154.007812 48.347656 150.328125 39.46875 143.648438 32.789062 M 118.640625 74.898438 C 115.9375 74.898438 114.789062 74.339844 113.859375 74.339844 C 112.050781 74.339844 110.578125 75.808594 110.578125 77.617188 C 110.578125 79.019531 111.550781 80.339844 112.808594 80.726562 C 114.070312 81.117188 116.359375 81.46875 118.640625 81.46875 C 131.6875 81.46875 142.300781 70.859375 142.300781 57.808594 C 142.300781 44.757812 131.6875 34.136719 118.640625 34.136719 C 112.257812 34.136719 106.070312 36.777344 101.628906 41.378906 L 77.808594 67.839844 C 75.128906 70.507812 71.578125 71.976562 67.800781 71.976562 C 59.980469 71.976562 53.621094 65.617188 53.621094 57.796875 C 53.621094 49.976562 59.988281 43.617188 67.808594 43.617188 C 69.640625 43.617188 70.210938 43.96875 70.988281 43.96875 C 72.347656 43.96875 73.757812 42.808594 73.757812 41.117188 C 73.757812 39.769531 72.820312 38.546875 71.539062 38.277344 C 70.527344 38.058594 69.019531 37.929688 67.808594 37.929688 C 56.847656 37.929688 47.929688 46.847656 47.929688 57.808594 C 47.929688 68.769531 56.847656 77.6875 67.808594 77.6875 C 76.808594 77.6875 81.800781 71.917969 82.589844 71.097656 L 105.839844 46.488281 C 109.089844 42.816406 113.757812 40.707031 118.640625 40.707031 C 128.058594 40.707031 135.730469 48.378906 135.730469 57.808594 C 135.730469 67.238281 128.058594 74.898438 118.628906 74.898438 L 118.640625 74.898438 M 118.640625 52.417969 C 121.609375 52.417969 124.019531 54.839844 124.019531 57.796875 C 124.019531 60.757812 121.597656 63.179688 118.640625 63.179688 L 117.390625 63.027344 C 117.097656 62.957031 115.847656 62.707031 114.960938 63.058594 C 113.757812 63.546875 112.910156 64.726562 112.910156 66.097656 C 112.910156 67.417969 113.878906 68.738281 114.917969 69.128906 C 115.960938 69.519531 117.480469 69.738281 118.640625 69.738281 C 125.230469 69.738281 130.589844 64.378906 130.589844 57.789062 C 130.589844 51.199219 125.230469 45.859375 118.640625 45.859375 C 115.359375 45.859375 112.179688 47.238281 109.9375 49.628906 C 109.9375 49.628906 88.847656 71.296875 83.871094 75.578125 C 79.4375 79.386719 74.089844 81.777344 67.800781 81.777344 C 61.398438 81.777344 55.371094 79.289062 50.847656 74.757812 C 46.328125 70.226562 43.828125 64.207031 43.828125 57.796875 C 43.828125 44.578125 54.589844 33.828125 67.808594 33.828125 C 70.359375 33.828125 72.089844 34.296875 72.769531 34.339844 C 74.417969 34.429688 75.769531 33.066406 75.769531 31.496094 C 75.769531 30.128906 74.769531 28.90625 73.429688 28.667969 C 73.429688 28.667969 70.847656 28.128906 67.808594 28.128906 C 51.4375 28.128906 38.128906 41.4375 38.128906 57.796875 C 38.128906 65.726562 41.21875 73.179688 46.820312 78.777344 C 52.417969 84.378906 59.878906 87.46875 67.800781 87.46875 C 75.480469 87.46875 82.730469 84.546875 88.277344 79.238281 L 114.820312 54.066406 C 115.890625 53.046875 116.960938 52.417969 118.640625 52.417969 " clip-rule="nonzero"/></clipPath><clipPath id="3e33a24a65"><path d="M 165.671875 37.625 L 321.671875 37.625 L 321.671875 76.960938 L 165.671875 76.960938 Z M 165.671875 37.625 " clip-rule="nonzero"/></clipPath><clipPath id="6848158969"><path d="M 253.222656 53.617188 C 254.660156 48.335938 259.222656 44.488281 264.632812 44.488281 C 270.042969 44.488281 274.601562 48.347656 276.042969 53.617188 L 253.222656 53.617188 M 264.632812 37.625 C 253.632812 37.625 244.929688 46.386719 244.929688 57.195312 C 244.929688 68.007812 253.632812 76.765625 264.632812 76.765625 C 271.441406 76.765625 276.972656 73.945312 280.980469 69.148438 L 274.859375 64.785156 C 272.070312 68.027344 268.703125 69.867188 264.632812 69.867188 C 258.960938 69.867188 254.210938 65.625 253.03125 59.957031 L 283.730469 59.957031 C 283.851562 59.097656 283.921875 58.097656 283.921875 57.207031 C 283.921875 46.398438 275.632812 37.625 264.632812 37.625 M 230.890625 60.898438 C 230.910156 66.675781 227.410156 69.65625 222.050781 69.65625 C 216.691406 69.65625 213.191406 66.675781 213.210938 60.898438 L 213.210938 38.125 L 205.210938 38.125 L 205.210938 61.425781 C 205.210938 69.945312 211.382812 76.757812 222.0625 76.757812 C 232.742188 76.757812 238.902344 69.957031 238.902344 61.425781 L 238.902344 38.125 L 230.890625 38.125 L 230.890625 60.898438 M 297.359375 68.90625 C 295.980469 68.90625 294.859375 67.785156 294.859375 66.40625 C 294.859375 65.335938 295.519531 64.40625 296.472656 64.066406 L 315.222656 57.195312 C 318.921875 55.777344 321.5625 52.1875 321.5625 47.988281 C 321.5625 42.546875 317.152344 38.125 311.699219 38.125 L 291.152344 38.125 L 291.152344 45.488281 L 311.5 45.488281 C 312.882812 45.488281 314 46.605469 314 47.988281 C 314 49.058594 313.332031 49.964844 312.390625 50.328125 L 293.640625 57.195312 C 289.929688 58.617188 287.089844 62.207031 287.089844 66.40625 C 287.089844 71.847656 291.710938 76.265625 297.160156 76.265625 L 321.589844 76.265625 L 321.589844 68.90625 L 297.359375 68.90625 M 193.621094 57.1875 L 174.882812 50.328125 C 173.941406 49.964844 173.273438 49.058594 173.273438 47.988281 C 173.273438 46.605469 174.390625 45.488281 175.773438 45.488281 L 196.121094 45.488281 L 196.121094 38.125 L 175.5625 38.125 C 170.121094 38.125 165.703125 42.546875 165.703125 47.988281 C 165.703125 52.195312 168.332031 55.777344 172.042969 57.195312 L 190.792969 64.066406 C 191.742188 64.40625 192.402344 65.335938 192.402344 66.40625 C 192.402344 67.785156 191.28125 68.90625 189.902344 68.90625 L 165.671875 68.90625 L 165.671875 76.257812 L 190.113281 76.257812 C 195.550781 76.257812 200.171875 71.847656 200.171875 66.398438 C 200.171875 62.195312 197.332031 58.605469 193.632812 57.1875 " clip-rule="nonzero"/></clipPath></defs><g clip-path="url(#f5cf2bf63c)"><g clip-path="url(#544a4107cd)"><path fill="#99ca3c" d="M 38.128906 22.429688 L 154.128906 22.429688 L 154.128906 93.09375 L 38.128906 93.09375 Z M 38.128906 22.429688 " fill-opacity="1" fill-rule="nonzero"/></g></g><g clip-path="url(#3e33a24a65)"><g clip-path="url(#6848158969)"><path fill="#0a185c" d="M 165.671875 37.625 L 321.671875 37.625 L 321.671875 76.960938 L 165.671875 76.960938 Z M 165.671875 37.625 " fill-opacity="1" fill-rule="nonzero"/></g></g></svg>