<svg xmlns="http://www.w3.org/2000/svg" xmlns:xlink="http://www.w3.org/1999/xlink" width="480" zoomAndPan="magnify" viewBox="0 0 360 113.999999" height="152" preserveAspectRatio="xMidYMid meet" version="1.0"><defs><clipPath id="72f9dfa781"><path d="M 0 12.246094 L 146.773438 12.246094 L 146.773438 102 L 0 102 Z M 0 12.246094 " clip-rule="nonzero"/></clipPath><clipPath id="cddb0c8e8f"><path d="M 133.511719 25.355469 C 125.058594 16.902344 113.824219 12.246094 101.867188 12.246094 C 87.65625 12.246094 74.144531 19.128906 65.730469 30.628906 C 65.730469 30.628906 43.070312 58.972656 41.945312 60.402344 C 40.816406 61.832031 39.171875 62.566406 37.554688 62.566406 C 34.492188 62.566406 31.984375 60.074219 31.984375 57.011719 C 31.984375 53.949219 34.480469 51.457031 37.554688 51.457031 L 38.566406 51.519531 C 40.980469 51.519531 42.5625 49.851562 42.5625 47.925781 C 42.5625 46.433594 41.527344 44.179688 37.996094 44.179688 C 30.441406 44.179688 24.785156 49.964844 24.785156 57.011719 C 24.785156 64.058594 30.519531 69.777344 37.554688 69.777344 C 41.148438 69.777344 44.550781 68.273438 46.96875 65.628906 L 73.082031 34.679688 C 80.066406 25.707031 90.554688 20.558594 101.867188 20.558594 C 111.597656 20.558594 120.757812 24.355469 127.640625 31.238281 C 134.523438 38.121094 138.320312 47.28125 138.320312 57.011719 C 138.320312 77.105469 121.960938 93.449219 101.867188 93.449219 C 96.171875 93.449219 94.300781 92.414062 92.894531 92.414062 C 90.53125 92.414062 88.644531 94.273438 88.644531 96.601562 C 88.644531 98.335938 89.667969 99.816406 91.351562 100.484375 C 92.78125 101.066406 98.351562 101.75 101.867188 101.75 C 126.539062 101.75 146.621094 81.671875 146.621094 57 C 146.621094 45.042969 141.964844 33.804688 133.511719 25.355469 M 101.867188 78.632812 C 98.449219 78.632812 96.996094 77.925781 95.820312 77.925781 C 93.527344 77.925781 91.667969 79.785156 91.667969 82.078125 C 91.667969 83.847656 92.894531 85.519531 94.492188 86.011719 C 96.085938 86.503906 98.980469 86.949219 101.867188 86.949219 C 118.378906 86.949219 131.804688 73.523438 131.804688 57.011719 C 131.804688 40.5 118.378906 27.0625 101.867188 27.0625 C 93.792969 27.0625 85.960938 30.402344 80.34375 36.222656 L 50.207031 69.703125 C 46.816406 73.082031 42.324219 74.941406 37.539062 74.941406 C 27.644531 74.941406 19.597656 66.894531 19.597656 57 C 19.597656 47.105469 27.660156 39.058594 37.554688 39.058594 C 39.867188 39.058594 40.589844 39.5 41.578125 39.5 C 43.296875 39.5 45.082031 38.03125 45.082031 35.894531 C 45.082031 34.1875 43.890625 32.640625 42.273438 32.300781 C 40.996094 32.023438 39.085938 31.859375 37.554688 31.859375 C 23.6875 31.859375 12.398438 43.144531 12.398438 57.011719 C 12.398438 70.878906 23.6875 82.164062 37.554688 82.164062 C 48.941406 82.164062 55.253906 74.863281 56.253906 73.828125 L 85.671875 42.6875 C 89.785156 38.042969 95.691406 35.375 101.867188 35.375 C 113.785156 35.375 123.492188 45.078125 123.492188 57.011719 C 123.492188 68.941406 113.785156 78.632812 101.855469 78.632812 L 101.867188 78.632812 M 101.867188 50.191406 C 105.625 50.191406 108.675781 53.253906 108.675781 57 C 108.675781 60.742188 105.613281 63.804688 101.867188 63.804688 L 100.285156 63.617188 C 99.917969 63.527344 98.335938 63.210938 97.210938 63.652344 C 95.691406 64.273438 94.617188 65.765625 94.617188 67.5 C 94.617188 69.171875 95.84375 70.839844 97.160156 71.335938 C 98.476562 71.828125 100.398438 72.105469 101.867188 72.105469 C 110.207031 72.105469 116.988281 65.324219 116.988281 56.984375 C 116.988281 48.648438 110.207031 41.890625 101.867188 41.890625 C 97.71875 41.890625 93.695312 43.636719 90.859375 46.660156 C 90.859375 46.660156 64.175781 74.078125 57.875 79.496094 C 52.269531 84.316406 45.5 87.339844 37.539062 87.339844 C 29.441406 87.339844 21.8125 84.1875 16.09375 78.457031 C 10.375 72.726562 7.210938 65.109375 7.210938 57 C 7.210938 40.273438 20.828125 26.671875 37.554688 26.671875 C 40.78125 26.671875 42.96875 27.265625 43.828125 27.316406 C 45.917969 27.429688 47.625 25.707031 47.625 23.722656 C 47.625 21.988281 46.359375 20.445312 44.664062 20.140625 C 44.664062 20.140625 41.398438 19.457031 37.554688 19.457031 C 16.839844 19.457031 0 36.296875 0 57 C 0 67.03125 3.910156 76.457031 10.996094 83.542969 C 18.082031 90.628906 27.519531 94.539062 37.539062 94.539062 C 47.257812 94.539062 56.429688 90.84375 63.453125 84.125 L 97.035156 52.277344 C 98.386719 50.988281 99.742188 50.191406 101.867188 50.191406 " clip-rule="nonzero"/></clipPath><clipPath id="bd66b407bd"><path d="M 162.71875 32.242188 L 360 32.242188 L 360 82 L 162.71875 82 Z M 162.71875 32.242188 " clip-rule="nonzero"/></clipPath><clipPath id="0ab108c774"><path d="M 273.492188 52.476562 C 275.3125 45.792969 281.082031 40.921875 287.925781 40.921875 C 294.773438 40.921875 300.542969 45.808594 302.363281 52.476562 L 273.492188 52.476562 M 287.925781 32.242188 C 274.007812 32.242188 263.003906 43.328125 263.003906 57.003906 C 263.003906 70.683594 274.007812 81.765625 287.925781 81.765625 C 296.542969 81.765625 303.542969 78.199219 308.613281 72.125 L 300.871094 66.609375 C 297.339844 70.707031 293.078125 73.035156 287.925781 73.035156 C 280.753906 73.035156 274.742188 67.671875 273.25 60.496094 L 312.09375 60.496094 C 312.246094 59.410156 312.335938 58.144531 312.335938 57.015625 C 312.335938 43.339844 301.84375 32.242188 287.925781 32.242188 M 245.238281 61.6875 C 245.261719 69 240.835938 72.769531 234.050781 72.769531 C 227.269531 72.769531 222.84375 69 222.867188 61.6875 L 222.867188 32.875 L 212.746094 32.875 L 212.746094 62.355469 C 212.746094 73.136719 220.550781 81.753906 234.066406 81.753906 C 247.578125 81.753906 255.371094 73.148438 255.371094 62.355469 L 255.371094 32.875 L 245.238281 32.875 L 245.238281 61.6875 M 329.339844 71.820312 C 327.59375 71.820312 326.175781 70.402344 326.175781 68.65625 C 326.175781 67.304688 327.011719 66.128906 328.214844 65.699219 L 351.9375 57.003906 C 356.617188 55.207031 359.960938 50.664062 359.960938 45.351562 C 359.960938 38.46875 354.378906 32.875 347.484375 32.875 L 321.484375 32.875 L 321.484375 42.1875 L 347.230469 42.1875 C 348.976562 42.1875 350.394531 43.605469 350.394531 45.351562 C 350.394531 46.707031 349.546875 47.855469 348.355469 48.3125 L 324.632812 57.003906 C 319.9375 58.800781 316.34375 63.34375 316.34375 68.65625 C 316.34375 75.542969 322.191406 81.132812 329.085938 81.132812 L 359.996094 81.132812 L 359.996094 71.820312 L 329.339844 71.820312 M 198.082031 56.992188 L 174.371094 48.3125 C 173.179688 47.855469 172.332031 46.707031 172.332031 45.351562 C 172.332031 43.605469 173.75 42.1875 175.496094 42.1875 L 201.246094 42.1875 L 201.246094 32.875 L 175.230469 32.875 C 168.347656 32.875 162.753906 38.46875 162.753906 45.351562 C 162.753906 50.679688 166.082031 55.207031 170.777344 57.003906 L 194.5 65.699219 C 195.703125 66.128906 196.539062 67.304688 196.539062 68.65625 C 196.539062 70.402344 195.121094 71.820312 193.375 71.820312 L 162.71875 71.820312 L 162.71875 81.121094 L 193.640625 81.121094 C 200.523438 81.121094 206.367188 75.542969 206.367188 68.644531 C 206.367188 63.332031 202.773438 58.789062 198.09375 56.992188 " clip-rule="nonzero"/></clipPath></defs><g clip-path="url(#72f9dfa781)"><g clip-path="url(#cddb0c8e8f)"><path fill="#99ca3c" d="M 0 12.246094 L 146.773438 12.246094 L 146.773438 101.449219 L 0 101.449219 Z M 0 12.246094 " fill-opacity="1" fill-rule="nonzero"/></g></g><g clip-path="url(#bd66b407bd)"><g clip-path="url(#0ab108c774)"><path fill="#0a185c" d="M 162.71875 32.242188 L 360.097656 32.242188 L 360.097656 81.589844 L 162.71875 81.589844 Z M 162.71875 32.242188 " fill-opacity="1" fill-rule="nonzero"/></g></g></svg>