<svg xmlns="http://www.w3.org/2000/svg" xmlns:xlink="http://www.w3.org/1999/xlink" width="500" zoomAndPan="magnify" viewBox="0 0 375 374.999991" height="500" preserveAspectRatio="xMidYMid meet" version="1.0"><defs><clipPath id="c54ba38f54"><path d="M 0.511719 142.058594 L 153.574219 142.058594 L 153.574219 236 L 0.511719 236 Z M 0.511719 142.058594 " clip-rule="nonzero"/></clipPath><clipPath id="b6c21e418c"><path d="M 139.746094 155.757812 C 130.933594 146.925781 119.214844 142.058594 106.746094 142.058594 C 91.929688 142.058594 77.835938 149.25 69.058594 161.269531 C 69.058594 161.269531 45.425781 190.894531 44.25 192.386719 C 43.082031 193.878906 41.363281 194.648438 39.675781 194.648438 C 36.484375 194.648438 33.871094 192.042969 33.871094 188.84375 C 33.871094 185.640625 36.46875 183.039062 39.675781 183.039062 L 40.730469 183.105469 C 43.25 183.105469 44.902344 181.359375 44.902344 179.351562 C 44.902344 177.789062 43.816406 175.433594 40.136719 175.433594 C 32.257812 175.433594 26.359375 181.476562 26.359375 188.84375 C 26.359375 196.210938 32.339844 202.1875 39.675781 202.1875 C 43.421875 202.1875 46.972656 200.609375 49.492188 197.847656 L 76.730469 165.5 C 84.011719 156.125 94.949219 150.742188 106.746094 150.742188 C 116.890625 150.742188 126.449219 154.710938 133.621094 161.90625 C 140.800781 169.101562 144.761719 178.671875 144.761719 188.84375 C 144.761719 209.84375 127.699219 226.929688 106.746094 226.929688 C 100.808594 226.929688 98.855469 225.84375 97.390625 225.84375 C 94.921875 225.84375 92.953125 227.785156 92.953125 230.21875 C 92.953125 232.03125 94.027344 233.578125 95.777344 234.28125 C 97.273438 234.890625 103.078125 235.601562 106.746094 235.601562 C 132.476562 235.601562 153.414062 214.613281 153.414062 188.828125 C 153.414062 176.332031 148.558594 164.59375 139.746094 155.757812 M 106.746094 211.441406 C 103.179688 211.441406 101.664062 210.703125 100.4375 210.703125 C 98.050781 210.703125 96.109375 212.648438 96.109375 215.039062 C 96.109375 216.894531 97.390625 218.636719 99.050781 219.148438 C 100.71875 219.667969 103.738281 220.132812 106.746094 220.132812 C 123.964844 220.132812 137.96875 206.101562 137.96875 188.84375 C 137.96875 171.585938 123.964844 157.542969 106.746094 157.542969 C 98.324219 157.542969 90.160156 161.03125 84.300781 167.117188 L 52.871094 202.109375 C 49.332031 205.636719 44.648438 207.578125 39.664062 207.578125 C 29.34375 207.578125 20.953125 199.167969 20.953125 188.828125 C 20.953125 178.488281 29.355469 170.078125 39.675781 170.078125 C 42.089844 170.078125 42.84375 170.542969 43.871094 170.542969 C 45.664062 170.542969 47.523438 169.007812 47.523438 166.773438 C 47.523438 164.988281 46.289062 163.371094 44.597656 163.015625 C 43.261719 162.726562 41.273438 162.558594 39.675781 162.558594 C 25.210938 162.558594 13.445312 174.351562 13.445312 188.84375 C 13.445312 203.339844 25.210938 215.132812 39.675781 215.132812 C 51.550781 215.132812 58.136719 207.5 59.179688 206.417969 L 89.855469 173.875 C 94.144531 169.019531 100.304688 166.230469 106.746094 166.230469 C 119.175781 166.230469 129.296875 176.375 129.296875 188.84375 C 129.296875 201.3125 119.175781 211.441406 106.730469 211.441406 L 106.746094 211.441406 M 106.746094 181.714844 C 110.664062 181.714844 113.84375 184.917969 113.84375 188.828125 C 113.84375 192.742188 110.648438 195.945312 106.746094 195.945312 L 105.097656 195.746094 C 104.710938 195.652344 103.0625 195.320312 101.890625 195.785156 C 100.304688 196.433594 99.1875 197.992188 99.1875 199.804688 C 99.1875 201.550781 100.464844 203.296875 101.835938 203.8125 C 103.210938 204.332031 105.21875 204.621094 106.746094 204.621094 C 115.441406 204.621094 122.515625 197.53125 122.515625 188.816406 C 122.515625 180.105469 115.441406 173.042969 106.746094 173.042969 C 102.417969 173.042969 98.222656 174.867188 95.265625 178.027344 C 95.265625 178.027344 67.433594 206.679688 60.867188 212.34375 C 55.019531 217.378906 47.960938 220.539062 39.664062 220.539062 C 31.214844 220.539062 23.261719 217.25 17.292969 211.257812 C 11.332031 205.265625 8.03125 197.304688 8.03125 188.828125 C 8.03125 171.347656 22.230469 157.132812 39.675781 157.132812 C 43.039062 157.132812 45.324219 157.753906 46.21875 157.808594 C 48.394531 157.929688 50.179688 156.125 50.179688 154.050781 C 50.179688 152.242188 48.859375 150.625 47.089844 150.308594 C 47.089844 150.308594 43.683594 149.597656 39.675781 149.597656 C 18.074219 149.597656 0.511719 167.195312 0.511719 188.828125 C 0.511719 199.316406 4.589844 209.171875 11.980469 216.574219 C 19.367188 223.980469 29.210938 228.066406 39.664062 228.066406 C 49.796875 228.066406 59.363281 224.203125 66.683594 217.183594 L 101.707031 183.894531 C 103.117188 182.546875 104.53125 181.714844 106.746094 181.714844 " clip-rule="nonzero"/></clipPath><clipPath id="1e7ae1a8c0"><path d="M 168.804688 162.152344 L 374.648438 162.152344 L 374.648438 214 L 168.804688 214 Z M 168.804688 162.152344 " clip-rule="nonzero"/></clipPath><clipPath id="d712548cfa"><path d="M 284.332031 183.300781 C 286.226562 176.316406 292.246094 171.230469 299.386719 171.230469 C 306.523438 171.230469 312.539062 176.332031 314.441406 183.300781 L 284.332031 183.300781 M 299.386719 162.152344 C 284.871094 162.152344 273.386719 173.738281 273.386719 188.03125 C 273.386719 202.332031 284.871094 213.914062 299.386719 213.914062 C 308.371094 213.914062 315.667969 210.183594 320.957031 203.839844 L 312.878906 198.070312 C 309.199219 202.355469 304.757812 204.789062 299.386719 204.789062 C 291.902344 204.789062 285.632812 199.179688 284.078125 191.683594 L 324.585938 191.683594 C 324.746094 190.546875 324.839844 189.226562 324.839844 188.046875 C 324.839844 173.753906 313.902344 162.152344 299.386719 162.152344 M 254.863281 192.929688 C 254.886719 200.570312 250.269531 204.511719 243.199219 204.511719 C 236.125 204.511719 231.507812 200.570312 231.535156 192.929688 L 231.535156 162.816406 L 220.976562 162.816406 L 220.976562 193.628906 C 220.976562 204.894531 229.121094 213.902344 243.214844 213.902344 C 257.304688 213.902344 265.433594 204.910156 265.433594 193.628906 L 265.433594 162.816406 L 254.863281 162.816406 L 254.863281 192.929688 M 342.570312 203.519531 C 340.75 203.519531 339.269531 202.035156 339.269531 200.214844 C 339.269531 198.796875 340.140625 197.570312 341.398438 197.121094 L 366.140625 188.03125 C 371.019531 186.15625 374.503906 181.410156 374.503906 175.859375 C 374.503906 168.664062 368.6875 162.816406 361.492188 162.816406 L 334.378906 162.816406 L 334.378906 172.550781 L 361.226562 172.550781 C 363.050781 172.550781 364.527344 174.03125 364.527344 175.859375 C 364.527344 177.273438 363.644531 178.472656 362.402344 178.953125 L 337.660156 188.03125 C 332.765625 189.914062 329.019531 194.660156 329.019531 200.214844 C 329.019531 207.410156 335.117188 213.25 342.304688 213.25 L 374.542969 213.25 L 374.542969 203.519531 L 342.570312 203.519531 M 205.683594 188.023438 L 180.960938 178.953125 C 179.71875 178.472656 178.835938 177.273438 178.835938 175.859375 C 178.835938 174.03125 180.308594 172.550781 182.136719 172.550781 L 208.984375 172.550781 L 208.984375 162.816406 L 181.855469 162.816406 C 174.675781 162.816406 168.847656 168.664062 168.847656 175.859375 C 168.847656 181.421875 172.316406 186.15625 177.210938 188.03125 L 201.953125 197.121094 C 203.207031 197.570312 204.078125 198.796875 204.078125 200.214844 C 204.078125 202.035156 202.597656 203.519531 200.777344 203.519531 L 168.804688 203.519531 L 168.804688 213.242188 L 201.054688 213.242188 C 208.230469 213.242188 214.328125 207.410156 214.328125 200.203125 C 214.328125 194.644531 210.582031 189.898438 205.699219 188.023438 " clip-rule="nonzero"/></clipPath></defs><g clip-path="url(#c54ba38f54)"><g clip-path="url(#b6c21e418c)"><path fill="#99ca3c" d="M 0.511719 142.058594 L 153.574219 142.058594 L 153.574219 235.503906 L 0.511719 235.503906 Z M 0.511719 142.058594 " fill-opacity="1" fill-rule="nonzero"/></g></g><g clip-path="url(#1e7ae1a8c0)"><g clip-path="url(#d712548cfa)"><path fill="#0a185c" d="M 168.804688 162.152344 L 374.648438 162.152344 L 374.648438 214.171875 L 168.804688 214.171875 Z M 168.804688 162.152344 " fill-opacity="1" fill-rule="nonzero"/></g></g></svg>